<?xml version="1.0" standalone="no"?> <!DOCTYPE svg PUBLIC "-//W3C//DTD SVG 1.0//EN" "http://www.w3.org/TR/2001/REC-SVG-20010904/DTD/svg10.dtd" > <svg xmlns="http://www.w3.org/2000/svg" width="100%" height="100%">
<defs >
<font id="bellgothicstdlight" horiz-adv-x="845" ><font-face
    font-family="Bell Gothic Std Light"
    units-per-em="2048"
    panose-1="2 11 5 6 2 2 3 2 2 4"
    ascent="1531"
    descent="-516"
    alphabetic="0" />
<missing-glyph horiz-adv-x="1024" d="M0 0V1434H1024V0H0ZM512 809L860 1331H164L512 809ZM573 717L922 195V1239L573 717ZM164 102H860L512 625L164 102ZM102 1239V195L451 717L102 1239Z" />
<glyph unicode=" " glyph-name="space" horiz-adv-x="563" />
<glyph unicode="!" glyph-name="exclam" horiz-adv-x="796" d="M473 1397L449 477H350L317 1397H473ZM279 111Q279 161 315 197T399 233T483 198T520 111Q520 61 486 26T397 -10Q340 -10 310 27T279 111Z" />
<glyph unicode="&quot;" glyph-name="quotedbl" horiz-adv-x="681" d="M143 881V1436H279V881H143ZM406 881V1436H541V881H406Z" />
<glyph unicode="#" glyph-name="numbersign" horiz-adv-x="1228" d="M1057 561L1061 451H844L782 0H655L719 451H453L391 0H264L328 451H115L111 561H344L387 872H172L168 983H401L465 1434H590L526 983H793L856 1434H981L918 983H1114L1118 872H903L860 561H1057ZM778
872H512L469 561H735L778 872Z" />
<glyph unicode="$" glyph-name="dollar" horiz-adv-x="1138" d="M500 1266V1446H606V1266Q712 1252 788 1223T934 1130L864 1026Q796 1082 737 1114T606 1157V729Q750 669 795 644Q930 569 959 452Q969 415 969 371Q969 208 872 122T606 14V-258H500V10Q380 19
301 54T121 170L190 281Q300 154 500 125V621Q452 640 427 650T359 682T292 721T237 766T191 823T164 891T152 975Q152 1069 203 1136T332 1235T500 1266ZM500 768V1161Q439 1159 395 1142T327 1097T292 1040T281 981Q281 875 381 819Q395 811 440 792T500 768ZM606
588V129Q711 137 776 191T842 346Q842 391 827 428T790 488T733 533T671 564T606 588Z" />
<glyph unicode="%" glyph-name="percent" horiz-adv-x="2048" d="M215 958Q215 1092 312 1186T543 1280Q671 1280 765 1187T860 958T768 728T543 633Q410 633 313 725T215 958ZM543 1149Q464 1149 405 1095T346 956Q346 875 402 820T541 764T676 821T729 956Q729
1042 672 1095T543 1149ZM1188 344Q1188 478 1284 572T1516 666Q1642 666 1737 572T1833 344Q1833 209 1740 114T1516 18Q1382 18 1285 110T1188 344ZM1516 537Q1435 537 1376 482T1317 342Q1317 260 1374 205T1511 150Q1594 150 1648 207T1702 344Q1702 429 1643
483T1516 537ZM1382 1319H1487L666 -12H561L1382 1319Z" />
<glyph unicode="&amp;" glyph-name="ampersand" horiz-adv-x="1478" d="M1178 696L1300 641Q1233 423 1059 227Q1086 195 1103 178T1149 136T1212 100T1284 88Q1340 88 1389 119V-23Q1321 -45 1276 -45Q1221 -45 1173 -30T1083 15T1021 66T965 123Q911 69 848
32T728 -20T636 -41T573 -47Q484 -47 410 -21T286 46T203 142T154 253T139 365Q139 417 152 465T184 549T235 622T292 681T357 731T417 769T473 801Q434 865 414 903T376 999T358 1116Q358 1227 441 1308T641 1389Q706 1389 758 1370T841 1322T893 1256T922 1184T930
1118Q930 914 647 762Q672 723 693 690T740 621T779 566T825 505T866 451T919 385T973 317Q1014 370 1042 412T1110 533T1178 696ZM571 82Q675 82 755 126T879 223Q808 302 738 395T633 540T532 696Q489 670 467 656T411 615T358 566T320 512T292 444T283 362Q283
341 287 314T309 243T356 166T441 107T571 82ZM586 860Q628 883 654 900T719 952T778 1029T799 1124Q799 1169 783 1202T740 1252T689 1276T641 1284Q597 1284 565 1267T516 1223T492 1169T485 1116Q485 1009 586 860Z" />
<glyph unicode="&apos;" glyph-name="quotesingle" horiz-adv-x="454" d="M160 881V1436H295V881H160Z" />
<glyph unicode="(" glyph-name="parenleft" horiz-adv-x="796" d="M473 1399H618Q479 1247 401 1058T322 688Q322 591 338 505T376 354T441 215T520 92T616 -37H479Q332 140 266 305T199 686Q199 790 220 890T268 1060T338 1204T408 1314T473 1399Z" />
<glyph unicode=")" glyph-name="parenright" horiz-adv-x="796" d="M178 1399H324Q363 1350 389 1315T458 1205T529 1061T577 891T598 686Q598 470 531 305T317 -37H180Q241 42 276 91T355 214T421 353T459 504T475 688Q475 869 397 1058T178 1399Z" />
<glyph unicode="*" glyph-name="asterisk" horiz-adv-x="1138" d="M195 1075L236 1206L532 1073L496 1395H627L596 1073L895 1219L940 1087L610 1020L848 780L739 694L565 981L418 696L305 780L522 1018L195 1075Z" />
<glyph unicode="+" glyph-name="plus" horiz-adv-x="1228" d="M547 586V1036H682V586H1130V451H682V0H547V451H98V586H547Z" />
<glyph unicode="," glyph-name="comma" horiz-adv-x="569" d="M266 227H395L160 -377H29L266 227Z" />
<glyph unicode="-" glyph-name="hyphen" horiz-adv-x="681" d="M80 471V584H604V471H80Z" />
<glyph unicode="." glyph-name="period" horiz-adv-x="569" d="M281 -14Q229 -14 193 20T156 106T192 193T279 229Q330 229 366 192T403 106Q403 55 367 21T281 -14Z" />
<glyph unicode="/" glyph-name="slash" horiz-adv-x="569" d="M94 -49H-45L471 1389H614L94 -49Z" />
<glyph unicode="0" glyph-name="zero" horiz-adv-x="1138" d="M993 635Q993 574 989 515T972 388T941 260T889 146T816 51T715 -13T584 -37Q484 -37 406 4T281 110T202 263T159 436T147 614Q147 790 180 923T274 1134T410 1251T580 1290Q640 1290 696 1270T808
1200T903 1078T968 891T993 635ZM285 641Q285 560 292 485T320 334T372 202T454 111T571 76Q623 76 666 97T738 154T789 238T823 336T842 442T852 543T854 631Q854 677 852 721T841 821T821 924T786 1019T733 1100T659 1153T561 1174Q491 1174 438 1134T357 1037T312
901T290 763T285 641Z" />
<glyph unicode="1" glyph-name="one" horiz-adv-x="1138" d="M184 1255H659V115H930V0H231V115H512V1139H184V1255Z" />
<glyph unicode="2" glyph-name="two" horiz-adv-x="1138" d="M242 930L137 999Q148 1023 156 1038T184 1087T225 1142T278 1193T348 1239T434 1269T539 1282Q636 1282 712 1252T835 1172T906 1059T930 928Q930 868 909 811T861 714T783 625T698 550T603 479Q596
474 592 471Q464 377 417 333Q299 223 285 123H944V0H141Q161 202 259 331Q317 407 453 516Q469 529 505 557Q542 586 561 602Q689 708 736 773T784 918Q784 1022 721 1091T537 1161Q326 1161 242 930Z" />
<glyph unicode="3" glyph-name="three" horiz-adv-x="1138" d="M115 -45V61Q190 62 235 64T355 76T497 106T627 162Q712 209 770 278T829 434Q829 536 767 586T600 637Q527 637 412 598L375 696Q395 705 448 727T535 765T615 809T689 865T737 933T758 1020Q758
1084 710 1124T580 1165Q486 1165 409 1125T242 1006L180 1100Q391 1282 575 1282Q663 1282 728 1258T829 1193T882 1109T899 1016Q899 966 881 924T833 852T773 803T712 763T668 733V729Q668 721 700 721Q824 721 899 644T975 442Q975 376 951 315T895 213T821
136T751 83T700 55Q633 21 554 0T385 -30T246 -41T115 -45Z" />
<glyph unicode="4" glyph-name="four" horiz-adv-x="1138" d="M702 494V1149Q702 1169 690 1169Q682 1169 668 1155L229 530Q223 518 223 512Q223 502 226 498T242 494H702ZM844 494H1010V371H844V0H705V371H100V547L612 1280H844V494Z" />
<glyph unicode="5" glyph-name="five" horiz-adv-x="1138" d="M242 1255H891V1143H350L317 780Q358 799 384 809T461 829T563 840Q640 840 711 816T843 746T940 621T977 442Q977 324 933 231T811 79T635 -10T422 -41Q337 -41 245 -20T109 25L131 147Q211 118 245
107T337 85T457 74Q539 74 605 97T714 158T786 243T828 339T840 432Q840 507 812 564T739 652T645 698T547 713Q488 713 438 697T361 663T314 628T287 612H170L242 1255Z" />
<glyph unicode="6" glyph-name="six" horiz-adv-x="1138" d="M473 1284H659Q571 1193 467 1060T307 807Q289 768 275 724T255 657T250 629Q250 616 256 616Q274 616 285 627Q366 708 432 742T600 776Q777 776 891 658T1006 369Q1006 176 880 64T559 -49Q452 -49
366 -6T225 111T142 277T113 471Q113 585 141 694T225 909T336 1097T473 1284ZM868 365Q868 486 782 571T573 657T366 571T281 365Q281 242 366 156T573 70T781 156T868 365Z" />
<glyph unicode="7" glyph-name="seven" horiz-adv-x="1138" d="M109 1255H967V1178Q629 577 471 0H299Q350 207 499 527T801 1128H109V1255Z" />
<glyph unicode="8" glyph-name="eight" horiz-adv-x="1138" d="M999 330Q999 250 973 186T903 79T798 8T668 -32T524 -45Q332 -45 221 63T109 330Q109 387 122 434T152 511T197 565T245 603T292 631Q302 636 307 639Q316 644 334 651T361 663T371 674T354 685T309
702T262 725Q145 801 145 944Q145 1105 258 1191T551 1278Q613 1278 670 1268T782 1233T875 1173T939 1083T963 961Q963 881 928 822T840 733Q819 721 791 707T750 687T737 676Q737 670 742 667T774 653Q999 562 999 330ZM555 612Q522 612 487 607T409 583T332
537T277 457T254 340Q254 219 332 143T547 66Q700 66 780 145T860 342Q860 403 838 451T781 529T704 577T624 604T555 612ZM829 958Q829 1048 757 1105T539 1163Q431 1163 356 1108T281 948Q281 848 355 787T532 725Q667 725 748 780T829 958Z" />
<glyph unicode="9" glyph-name="nine" horiz-adv-x="1138" d="M637 -43H453Q651 155 764 356Q790 403 826 487T862 604Q862 621 846 621Q837 621 811 592Q749 520 683 492T522 463Q411 463 317 510T164 647T106 850Q106 1046 226 1166T543 1286Q681 1286 785 1218T943
1038T997 786Q997 560 903 361T637 -43ZM244 997T244 874T330 667T539 582Q659 582 745 667T831 874Q831 995 745 1082T539 1169Q416 1169 330 1083Z" />
<glyph unicode=":" glyph-name="colon" horiz-adv-x="681" d="M346 754Q289 754 254 791T219 877Q219 930 257 964T344 999Q393 999 429 964T465 877Q465 825 430 790T346 754ZM346 -16Q289 -16 254 20T219 106Q219 159 257 194T344 229Q393 229 429 194T465 106Q465
55 430 20T346 -16Z" />
<glyph unicode=";" glyph-name="semicolon" horiz-adv-x="681" d="M285 231H418L176 -373H49L285 231ZM217 885Q217 936 255 972T342 1008Q392 1008 430 971T469 883Q469 838 435 800T344 762Q286 762 252 798T217 885Z" />
<glyph unicode="&lt;" glyph-name="less" horiz-adv-x="1228" d="M1135 123V-16L94 455V582L1135 1053V913L264 518L1135 123Z" />
<glyph unicode="=" glyph-name="equal" horiz-adv-x="1228" d="M1130 791V655H98V791H1130ZM1130 381V246H98V381H1130Z" />
<glyph unicode="&gt;" glyph-name="greater" horiz-adv-x="1228" d="M94 123L965 518L94 913V1053L1135 582V455L94 -16V123Z" />
<glyph unicode="?" glyph-name="question" horiz-adv-x="1024" d="M528 473H412V561Q412 648 444 708T537 829L602 897Q650 946 674 993T698 1100Q698 1178 648 1231T489 1284Q466 1284 450 1283T402 1272T346 1244T292 1189T240 1100L109 1149Q121 1176 138 1203T189
1268T266 1333T371 1381T508 1401Q664 1401 751 1310T838 1096Q838 1045 825 1001T782 916T730 851T668 788Q619 741 598 718T557 658T532 581T528 473ZM342 102Q342 152 377 187T465 223Q514 223 551 187T588 102Q588 51 552 18T465 -16Q411 -16 377 17T342 102Z"
/>
<glyph unicode="@" glyph-name="at" horiz-adv-x="1638" d="M1358 326L1432 256Q1342 131 1190 53T858 -25Q702 -25 563 33T325 192T167 430T109 723Q109 924 210 1093T481 1360T850 1458Q986 1458 1111 1413T1329 1290T1475 1106T1530 879Q1530 782 1501 692T1422
534T1313 416T1187 339T1063 313Q1008 313 972 347T932 444L928 440Q807 313 674 313Q557 313 480 400T403 604Q403 680 423 757T485 904T581 1028T710 1113T866 1145Q1016 1145 1087 985L1128 1100H1251L1100 584Q1078 528 1081 478T1124 428Q1195 428 1262 493T1368
653T1407 834Q1407 989 1330 1108T1127 1288T850 1350Q721 1350 606 1299T411 1162T283 958T236 711Q236 538 319 394T546 167T862 84Q1004 84 1138 149T1358 326ZM866 1022Q799 1022 738 982T636 882T571 756T547 637Q547 549 595 495T715 440Q778 440 837 480T937
581T1001 708T1026 829Q1026 903 977 962T866 1022Z" />
<glyph unicode="A" glyph-name="A" horiz-adv-x="1366" d="M401 446H967L696 1184Q693 1190 686 1190Q681 1190 676 1180L401 446ZM238 0H86L614 1380H758L1282 0H1128L1006 332H360L238 0Z" />
<glyph unicode="B" glyph-name="B" horiz-adv-x="1366" d="M418 1247V793Q534 792 613 792T751 797T852 815Q920 834 971 887T1022 1024Q1022 1098 978 1152T868 1229Q815 1247 723 1247H418ZM274 0V1360H729Q961 1360 1063 1264Q1157 1176 1157 1040Q1157 975
1136 923T1085 840T1019 789T959 761T918 750Q913 748 913 741Q913 729 936 729Q1044 718 1127 627T1210 397Q1210 311 1177 232T1079 96Q1041 62 996 41T895 12T804 2T707 0H274ZM418 123H721Q755 123 776 123T838 129T906 144T967 173T1021 220T1056 292T1071
391Q1071 412 1070 426T1063 470T1046 523T1010 573T952 621Q858 678 711 678H418V123Z" />
<glyph unicode="C" glyph-name="C" horiz-adv-x="1251" d="M1071 1010L948 969Q935 1107 863 1191T664 1276Q595 1276 538 1248T444 1176T380 1072T338 955T314 837T303 736T301 664Q301 626 302 596T309 500T328 383T367 269T430 165T524 95T655 66Q716 66 766
86T850 139T907 216T944 305T965 397L1087 360Q1082 317 1070 272T1025 166T949 61T829 -17T659 -49Q629 -49 608 -48T540 -37T456 -9T373 46T289 137Q164 317 164 612Q164 957 272 1149Q408 1389 682 1389Q842 1389 947 1285T1071 1010Z" />
<glyph unicode="D" glyph-name="D" horiz-adv-x="1366" d="M270 0V1360H623Q704 1360 763 1352T891 1321T1017 1248T1124 1120Q1184 1022 1204 913T1225 670Q1225 367 1055 166Q1007 111 951 76T830 25T712 5T582 0H270ZM412 1241V123H604Q753 123 846 163T1006
322Q1051 401 1069 507T1087 680Q1087 1045 889 1176Q816 1223 741 1232T412 1241Z" />
<glyph unicode="E" glyph-name="E" horiz-adv-x="1366" d="M295 0V1360H1153V1241H436V778H1053V653H436V123H1176V0H295Z" />
<glyph unicode="F" glyph-name="F" horiz-adv-x="1251" d="M252 0V1360H1104V1241H393V750H991V631H393V0H252Z" />
<glyph unicode="G" glyph-name="G" horiz-adv-x="1366" d="M1083 1059L961 1012Q952 1037 948 1048T934 1085T915 1125T893 1162T864 1199T828 1228T784 1253T731 1268T668 1274Q601 1274 547 1250T455 1188T390 1093T347 981T321 859T308 739T305 629Q305 591
308 549T322 451T349 343T394 240T460 151T551 90T672 66Q811 66 897 152Q934 189 958 237T992 339T1005 428T1010 512H645V631H1128V-37H1085L1006 121Q862 -49 680 -49Q389 -49 262 190Q221 266 197 369T169 531T164 641Q164 854 212 1005T344 1245Q391 1295
441 1327T540 1371T616 1386T680 1389Q697 1389 726 1386T809 1365T903 1321Q1022 1238 1083 1059Z" />
<glyph unicode="H" glyph-name="H" horiz-adv-x="1478" d="M299 0V1360H442V772H1038V1360H1182V0H1038V653H442V0H299Z" />
<glyph unicode="I" glyph-name="I" horiz-adv-x="796" d="M176 0V80H326V1280H176V1360H618V1280H469V80H618V0H176Z" />
<glyph unicode="J" glyph-name="J" horiz-adv-x="1024" d="M33 303L186 375Q182 321 182 297Q182 284 182 273T187 237T198 192T222 148T259 107T316 80T395 68Q434 68 467 76T523 96T565 128T595 167T615 213T628 260T634 308T636 353T637 393V1360H778V373Q778
314 772 266T747 164T697 70T610 -1T479 -45Q446 -51 393 -51Q304 -51 238 -29T117 57Q33 152 33 303Z" />
<glyph unicode="K" glyph-name="K" horiz-adv-x="1366" d="M1087 1360H1260L643 743L1307 0H1118L465 737L1087 1360ZM260 0V1360H397V0H260Z" />
<glyph unicode="L" glyph-name="L" horiz-adv-x="1251" d="M422 1360V123H1118V0H281V1360H422Z" />
<glyph unicode="M" glyph-name="M" horiz-adv-x="1820" d="M276 0V1360H561L801 522Q811 485 832 390T870 236Q884 190 901 190Q913 190 922 201T939 231T950 268T960 309T967 340Q1002 479 1018 532L1257 1360H1546V0H1409V1266Q1409 1296 1382 1296Q1368 1296
1363 1288T1348 1255Q1344 1247 1331 1200T1315 1145L987 0H821L532 1036Q529 1045 503 1148T471 1270Q461 1293 452 1296Q448 1298 442 1298Q414 1298 414 1266V0H276Z" />
<glyph unicode="N" glyph-name="N" horiz-adv-x="1478" d="M287 1360H528L885 498Q903 455 941 349T995 205Q998 198 1003 184T1012 162T1021 144T1031 130T1042 125T1053 133T1059 156V1360H1194V0H946L569 924L483 1143Q478 1156 472 1174T462 1201T455 1219T447
1231T438 1235Q431 1235 427 1230T422 1217V0H287V1360Z" />
<glyph unicode="O" glyph-name="O" horiz-adv-x="1251" d="M963 668Q963 718 961 764T950 874T927 990T887 1097T827 1189T742 1250T627 1274Q439 1274 348 1059Q289 913 289 653Q289 387 360 244Q453 66 621 66Q712 66 781 115T891 252Q916 305 932 361T954 477T961
573T963 668ZM1106 668Q1106 396 1020 207Q987 133 940 81T840 1T738 -37T637 -49Q428 -49 299 96Q145 270 145 629Q145 726 149 794T173 962T231 1143Q251 1184 279 1222T354 1300T468 1365T616 1389Q855 1389 981 1204Q1043 1113 1074 970T1106 668Z" />
<glyph unicode="P" glyph-name="P" horiz-adv-x="1366" d="M688 1247H446V688H684Q879 688 964 748T1049 954Q1049 1041 1023 1100T945 1190T833 1234T688 1247ZM303 0V1360H698Q945 1360 1055 1270Q1190 1160 1190 965Q1190 861 1152 784T1065 662Q1029 629 988
609T897 580T815 571T725 569H446V0H303Z" />
<glyph unicode="Q" glyph-name="Q" horiz-adv-x="1251" d="M1147 -92V-240Q1109 -244 1071 -244Q988 -244 944 -212T850 -109L788 -20Q766 -29 711 -43Q671 -49 637 -49Q428 -49 299 96Q145 270 145 629Q145 726 149 794T173 962T231 1143Q251 1184 279 1222T354
1300T468 1365T616 1389Q855 1389 981 1204Q1043 1113 1074 970T1106 668Q1106 396 1020 207Q976 105 893 39L918 2Q991 -102 1079 -102Q1109 -102 1147 -92ZM643 389L817 145Q860 185 891 252Q916 305 932 361T954 477T961 573T963 668Q963 718 961 764T950 874T927
990T887 1097T827 1189T742 1250T627 1274Q439 1274 348 1059Q289 913 289 653Q289 383 358 244Q451 66 621 66Q671 66 717 82L551 322L643 389Z" />
<glyph unicode="R" glyph-name="R" horiz-adv-x="1366" d="M295 0V1360H739Q817 1360 877 1351T976 1323T1035 1291T1079 1255Q1180 1162 1180 989Q1180 936 1170 888T1134 789T1067 702T960 640T809 612L1237 0H1065L672 602H436V0H295ZM436 725H666Q698 725
715 725T767 728T822 734T874 748T925 769T967 801T1002 846T1023 906T1032 983Q1032 1033 1022 1073T995 1139T952 1184T901 1213T843 1228T785 1235T727 1237H436V725Z" />
<glyph unicode="S" glyph-name="S" horiz-adv-x="1251" d="M1012 1108L885 1044Q876 1068 871 1081T852 1121T825 1166T788 1206T738 1242T674 1264T592 1274Q570 1274 544 1271T481 1253T415 1214T365 1145T344 1040Q344 988 365 946T425 876T490 833T553 803Q580
791 652 764T750 725Q831 691 882 659T975 582T1036 476T1055 332Q1055 243 1015 161T913 35Q801 -49 608 -49Q318 -49 172 268L295 328Q315 267 351 217T413 146T459 113Q539 68 655 68Q687 68 720 75T790 100T855 146T901 220T920 326Q920 403 883 462T774 557L707
590Q658 615 564 653T446 702Q413 718 397 727T350 758T295 809T252 877Q215 952 215 1038Q215 1195 315 1292T606 1389Q741 1389 837 1326T1012 1108Z" />
<glyph unicode="T" glyph-name="T" horiz-adv-x="1251" d="M119 1360H1135V1241H698V0H553V1241H119V1360Z" />
<glyph unicode="U" glyph-name="U" horiz-adv-x="1478" d="M291 1360H434V387Q434 307 458 247T516 154T593 101T666 76T721 70Q875 70 963 160T1051 408V1360H1188V406Q1188 186 1065 69T723 -49Q521 -49 406 75T291 401V1360Z" />
<glyph unicode="V" glyph-name="V" horiz-adv-x="1366" d="M752 0H612L133 1360H276L668 223L671 217Q674 211 676 211H690Q694 211 700 223L1092 1360H1237L752 0Z" />
<glyph unicode="W" glyph-name="W" horiz-adv-x="1933" d="M1421 440L1669 1360H1817L1423 0H1278L1024 952Q1015 986 1005 1033T987 1106T971 1147H956Q947 1137 941 1111T924 1034T903 944L662 0H516L117 1360H258L520 422Q521 419 537 353T564 248T582 209H594Q600
209 609 243T632 343T653 436L891 1360H1036L1286 426Q1290 412 1300 360T1320 265T1341 209H1354Q1361 209 1373 248T1402 359T1421 440Z" />
<glyph unicode="X" glyph-name="X" horiz-adv-x="1366" d="M760 709L1245 0H1079L768 453Q739 494 715 543Q695 583 694 584Q677 601 657 582Q653 578 648 566L643 553Q635 534 569 438L272 0H121L600 698L152 1360H315L582 967Q590 953 615 914T653 852T668 825Q675
811 686 811Q695 811 715 846Q760 924 819 1014L1053 1360H1206L760 709Z" />
<glyph unicode="Y" glyph-name="Y" horiz-adv-x="1366" d="M760 520V0H616V520L117 1360H274L635 735Q640 726 646 713T657 693T666 677T677 666T690 662Q699 662 710 679T743 739T780 809L1094 1360H1251L760 520Z" />
<glyph unicode="Z" glyph-name="Z" horiz-adv-x="1251" d="M166 1241V1360H1067V1264L461 315Q340 154 340 139Q340 121 373 121H1085V0H152V96L772 1069Q778 1080 807 1119T862 1194T887 1233Q887 1241 877 1241H166Z" />
<glyph unicode="[" glyph-name="bracketleft" horiz-adv-x="796" d="M252 1319V76Q456 73 688 86V10Q595 10 409 5T129 0V1395Q208 1395 397 1389T688 1384V1313Q616 1313 470 1316T252 1319Z" />
<glyph unicode="\" glyph-name="backslash" horiz-adv-x="569" d="M614 -49H475L-45 1389H98L614 -49Z" />
<glyph unicode="]" glyph-name="bracketright" horiz-adv-x="796" d="M545 76V1319Q472 1319 327 1316T109 1313V1384Q211 1382 400 1388T668 1395V0Q574 0 388 5T109 10V86Q341 73 545 76Z" />
<glyph unicode="^" glyph-name="asciicircum" horiz-adv-x="1228" d="M547 1434H678L1145 504H997L612 1282L231 504H84L547 1434Z" />
<glyph unicode="_" glyph-name="underscore" horiz-adv-x="1024" d="M1024 -256H0V-154H1024V-256Z" />
<glyph unicode="`" glyph-name="grave" horiz-adv-x="569" d="M14 1391H172L401 1108H297L14 1391Z" />
<glyph unicode="a" glyph-name="a" horiz-adv-x="1024" d="M721 606V727Q721 749 720 762T714 798T697 835T665 864T611 886T532 893Q456 893 390 867T238 786L180 915Q300 973 374 992T539 1012Q683 1012 762 952Q796 927 817 899T846 839T856 789T858 741V199Q858
138 891 111Q904 100 916 98T973 96V-16Q926 -16 905 -15T860 -10T817 6Q780 28 759 74T737 154Q737 170 735 176Q734 176 732 177T729 178Q725 178 723 176Q638 80 560 33T373 -14Q292 -14 245 7T162 66Q123 107 107 158T90 246Q90 300 106 347T145 425T199 482T254
522T303 547Q367 575 444 588T572 604T721 606ZM717 281V522Q650 522 608 520T509 508T406 479Q325 446 277 390T229 256Q229 240 232 222T247 180T276 138T327 107T403 94Q447 94 498 116T592 170T667 231T717 281Z" />
<glyph unicode="b" glyph-name="b" horiz-adv-x="1024" d="M141 1376L276 1450V827Q276 821 280 815T291 809Q301 809 308 822Q310 825 311 827Q332 865 348 888T395 942T469 990T567 1006Q605 1006 644 997T736 956T826 873T892 726T920 506Q920 279 838 141Q807
89 768 55T688 8T621 -8T563 -12Q426 -12 330 123Q295 182 289 182Q272 182 272 162V-23L141 51V1376ZM545 100Q610 100 658 135T733 230T771 354T784 492Q784 511 784 525T781 570T776 627T764 687T744 748T714 803T674 849T619 879T549 891Q434 891 354 778T274
485Q274 389 304 303T398 158T545 100Z" />
<glyph unicode="c" glyph-name="c" horiz-adv-x="909" d="M795 815L680 752Q612 897 479 897Q418 897 371 870T297 801T252 701T229 590T223 479Q223 312 283 217Q312 170 354 142T425 106T481 98Q530 98 567 113T628 157T661 205T682 252L823 190Q733 -16 469
-16Q397 -16 332 12T209 100T118 264T84 510Q84 726 194 869T479 1012Q601 1012 667 969T795 815Z" />
<glyph unicode="d" glyph-name="d" horiz-adv-x="1024" d="M879 1458V51L748 -23V162Q748 179 738 183Q734 185 731 182Q724 175 708 150T673 100T624 48T551 5T455 -12Q362 -12 291 32T179 150T118 306T98 477Q98 551 107 620T140 761T203 886T306 972T453 1006Q490
1006 524 996T582 972T629 937T665 899T691 861T708 832T717 813Q719 809 729 809Q743 809 743 827V1382L879 1458ZM465 100Q526 100 575 124T655 189T707 282T736 390T745 500Q745 671 666 781T473 891Q423 891 383 871T318 817T275 744T249 659T237 578T233 510Q233
310 299 205T465 100Z" />
<glyph unicode="e" glyph-name="e" horiz-adv-x="909" d="M209 606H668Q668 734 627 803Q598 850 550 873T451 897Q355 897 289 826T209 606ZM807 508H205Q205 102 467 102Q595 102 684 211L778 137Q712 56 639 22T463 -12Q387 -12 322 15T211 89T133 197T84 328T68
469Q68 702 156 842Q264 1010 457 1010Q520 1010 571 994T657 953T718 887T760 806T786 711T800 611T807 508Z" />
<glyph unicode="f" glyph-name="f" horiz-adv-x="681" d="M651 1411V1284Q589 1321 526 1321Q481 1321 451 1305T407 1257T387 1193T381 1116V938H618V834H385V0H250V834H49V938H250V1120Q250 1160 252 1185T262 1252T294 1329T354 1391Q419 1436 504 1436Q549
1436 573 1432T651 1411Z" />
<glyph unicode="g" glyph-name="g" horiz-adv-x="1024" d="M745 817V985H866V162Q866 106 863 63T850 -31T823 -119T774 -192T701 -252T595 -289T453 -303Q309 -303 223 -264V-129H299Q341 -166 379 -182T487 -199Q729 -199 729 72V240Q729 256 719 256Q715 256
713 254Q687 175 611 132T446 88Q365 88 298 129T189 236T125 379T102 532Q102 651 131 743T209 890T319 971T449 999Q511 999 562 979T644 927T693 869T721 817Q726 805 737 803Q745 811 745 817ZM481 201Q594 201 665 300T737 541Q737 698 665 795T479 893Q418
893 370 862T294 783T252 682T238 578Q238 201 481 201Z" />
<glyph unicode="h" glyph-name="h" horiz-adv-x="1024" d="M276 0H141V1374L281 1444V786Q281 774 287 770H295Q331 818 358 849T426 918T513 974T610 993Q755 993 811 915T868 684V0H733V657Q733 697 732 723T722 783T700 838T657 872T590 887Q507 887 420 811Q386
782 331 720T276 645V0Z" />
<glyph unicode="i" glyph-name="i" horiz-adv-x="569" d="M223 981H350V0H223V981ZM195 1176V1380H375V1176H195Z" />
<glyph unicode="j" glyph-name="j" horiz-adv-x="569" d="M25 -283V-143Q101 -193 156 -193Q176 -193 191 -187T215 -168T229 -142T237 -109T239 -77T240 -43V981H371V-72Q371 -305 145 -305Q80 -305 25 -283ZM213 1176V1380H393V1176H213Z" />
<glyph unicode="k" glyph-name="k" horiz-adv-x="1024" d="M180 0V1370L313 1446V0H180ZM348 483V512L772 981H932L494 508L946 0H770L348 483Z" />
<glyph unicode="l" glyph-name="l" horiz-adv-x="569" d="M221 0V1370L348 1436V0H221Z" />
<glyph unicode="m" glyph-name="m" horiz-adv-x="1593" d="M156 0V930L281 999V786Q281 764 295 764Q312 779 336 811T384 872T439 930T517 976T618 993Q669 993 708 981T769 952T808 908T831 860T846 809T860 766Q865 757 872 764Q882 774 903 805T947 866T1006
926T1093 976T1210 995Q1339 995 1389 921T1440 711V0H1311V694Q1311 734 1307 764T1289 825T1247 872T1174 889Q1123 889 1064 855T963 778T891 697T862 649V0H733V680Q733 724 729 755T712 819T671 869T598 887Q563 887 529 875T470 846T410 792T352 727T285
643V0H156Z" />
<glyph unicode="n" glyph-name="n" horiz-adv-x="1024" d="M152 0V934L281 1004V782Q281 773 286 768T297 768Q305 774 325 802T373 861T436 923T525 974T637 995Q706 995 754 972T827 906T862 812T872 694V0H739V698Q739 721 739 732T737 765T733 798T723 826T708
852T685 871T653 885T610 889Q549 889 502 864T403 793Q323 717 285 633V0H152Z" />
<glyph unicode="o" glyph-name="o" horiz-adv-x="1024" d="M774 473Q774 529 768 582T744 692T698 792T622 861T512 889Q448 889 399 860T323 788T279 685T257 572T252 461Q252 397 267 335T314 220T399 133T522 100Q593 100 644 134T723 225T762 344T774 473ZM909
483Q909 -18 504 -18Q402 -18 325 26T203 146T138 309T117 496Q117 591 139 678T207 841T330 962T510 1008Q596 1008 664 978T778 897T853 778T896 636T909 483Z" />
<glyph unicode="p" glyph-name="p" horiz-adv-x="1024" d="M274 471Q274 389 305 307T402 165T553 104Q606 104 648 129T715 193T756 283T778 381T784 473Q784 889 541 889Q492 889 446 865T361 794T298 663T274 471ZM141 934L274 1010V811Q274 801 281 801H285Q291
807 307 833T344 886T396 941T473 988T575 1006Q636 1006 694 979T803 894T886 735T918 498Q918 265 825 128T569 -10Q519 -10 474 8T401 51T348 105T314 154T299 184Q299 190 291 190Q281 190 281 176V-354H141V934Z" />
<glyph unicode="q" glyph-name="q" horiz-adv-x="1024" d="M741 1010L874 934V-354H737V176L733 186Q732 191 726 191T717 184Q682 102 608 46T446 -10Q355 -10 286 34T177 152T118 310T98 485Q98 554 107 622T141 761T203 885T302 972T440 1006Q484 1006 522
995T585 968T639 921T683 867T729 801H733Q741 801 741 811V1010ZM741 504Q741 676 664 782T477 889Q405 889 354 853T277 756T240 631T229 494Q229 429 239 368T272 244T345 143T463 104Q575 104 658 215T741 504Z" />
<glyph unicode="r" glyph-name="r" horiz-adv-x="796" d="M172 0V930L305 999V641Q305 629 311 629Q324 629 344 657T396 730T468 823T576 920T723 997V768Q650 768 591 751T483 699T394 621T309 514V0H172Z" />
<glyph unicode="s" glyph-name="s" horiz-adv-x="796" d="M76 92L129 209Q260 92 393 92Q491 92 546 138T602 258Q602 307 573 346T496 406Q264 499 227 516Q208 524 191 536T147 573T104 639T88 733Q88 861 172 935T387 1010Q463 1010 527 991T674 934L631 813Q513
901 377 901Q311 901 262 864T213 762Q213 737 217 719T235 684T263 655T310 627T370 600T453 567Q494 551 517 541T573 515T623 484T662 448T694 402T711 346T719 274Q719 134 626 61T389 -12Q295 -12 225 12T76 92Z" />
<glyph unicode="t" glyph-name="t" horiz-adv-x="681" d="M25 834V938H205V1186L340 1352V938H557V834H340V246Q340 218 340 203T346 163T360 127T387 104T432 94Q477 94 534 117T633 170V43Q588 15 523 -4T406 -23Q300 -23 253 43T205 221V834H25Z" />
<glyph unicode="u" glyph-name="u" horiz-adv-x="1024" d="M156 291V981H291V301Q291 270 292 252T297 205T310 159T336 124T378 98T440 90Q486 90 542 124T640 202T710 284T739 334V981H870V47L745 -18V201Q745 213 737 213Q728 213 717 199Q674 132 634 89T533
16T399 -14Q329 -14 280 9T205 75T167 171T156 291Z" />
<glyph unicode="v" glyph-name="v" horiz-adv-x="909" d="M57 981H203L416 287Q416 286 425 253T442 192T455 160H465Q471 166 478 184T489 219T500 261T508 291L719 981H848L537 0H373L57 981Z" />
<glyph unicode="w" glyph-name="w" horiz-adv-x="1366" d="M473 0H330L27 981H164L346 365Q367 295 375 262Q386 208 395 186Q403 182 406 182Q410 182 418 186Q422 199 431 237T449 321T459 371L616 981H756L918 375Q923 356 929 329T942 268T954 215Q964 178
981 178Q989 178 994 189T1008 236Q1015 281 1038 367L1221 981H1341L1042 0H901L725 653Q713 702 698 786Q694 815 688 823H678Q671 817 669 812T662 780L637 651L473 0Z" />
<glyph unicode="x" glyph-name="x" horiz-adv-x="1024" d="M590 500L926 0H766L553 330Q547 339 536 357T519 385T508 395T496 383T473 347T457 319L252 0H104L434 494L100 981H262L489 629Q509 598 516 598Q520 598 527 608T543 636T557 659L764 981H915L590 500Z" />
<glyph unicode="y" glyph-name="y" horiz-adv-x="909" d="M61 -297V-139H104Q116 -159 123 -168T151 -187T203 -197Q235 -197 261 -183T304 -150T336 -100T360 -44T380 15T397 66L51 981H197L393 440Q397 427 412 386T434 326Q436 320 439 311T444 295T448 282T453
270T457 261T462 254T467 252Q473 252 478 268T499 336T532 440L715 981H844L494 -31Q476 -82 460 -119T417 -198T361 -266T288 -310T193 -328Q135 -328 61 -297Z" />
<glyph unicode="z" glyph-name="z" horiz-adv-x="909" d="M123 862V981H801V864L375 266Q315 183 287 150Q264 125 264 117T285 109H801V0H109V106L502 668Q566 762 643 848V862H123Z" />
<glyph unicode="{" glyph-name="braceleft" horiz-adv-x="681" d="M616 1399V1294H537Q478 1294 452 1239T426 1100V979Q426 906 407 846T358 752T306 700T264 676V672Q283 665 306 648T358 598T406 504T426 367V262Q426 178 452 123T537 68H616V-37H512Q413 -37
352 33T291 225V334Q291 458 249 539T133 621V729Q207 729 249 810T291 1012V1137Q291 1259 352 1329T512 1399H616Z" />
<glyph unicode="|" glyph-name="bar" horiz-adv-x="454" d="M160 -512V1536H295V-512H160Z" />
<glyph unicode="}" glyph-name="braceright" horiz-adv-x="681" d="M66 1294V1399H170Q269 1399 330 1329T391 1137V1012Q391 891 433 810T549 729V621Q475 621 433 540T391 334V225Q391 103 330 33T170 -37H66V68H145Q204 68 230 123T256 262V367Q256 443 275
503T324 597T376 648T418 672V676Q400 682 377 700T324 752T276 846T256 979V1100Q256 1184 230 1239T145 1294H66Z" />
<glyph unicode="~" glyph-name="asciitilde" horiz-adv-x="1228" d="M215 379L133 461Q186 549 246 597T391 645Q436 645 485 633T558 610T633 575Q676 552 703 540T767 517T838 506Q930 506 1014 641L1096 555Q1042 467 983 420T838 375Q799 375 755 386T690
406T618 438Q609 442 604 444Q539 479 492 496T391 514Q300 514 215 379Z" />
</font>
</defs>
</svg>
